<?xml version="1.0" standalone="no"?><svg xmlns="http://www.w3.org/2000/svg" viewBox="0 0 1440 320"><path fill="#fefdff" fill-opacity="1" d="M0,256L30,250.7C60,245,120,235,180,234.7C240,235,300,245,360,245.3C420,245,480,235,540,213.3C600,192,660,160,720,160C780,160,840,192,900,197.3C960,203,1020,181,1080,176C1140,171,1200,181,1260,192C1320,203,1380,213,1410,218.7L1440,224L1440,320L1410,320C1380,320,1320,320,1260,320C1200,320,1140,320,1080,320C1020,320,960,320,900,320C840,320,780,320,720,320C660,320,600,320,540,320C480,320,420,320,360,320C300,320,240,320,180,320C120,320,60,320,30,320L0,320Z"></path></svg>